<svg xmlns="http://www.w3.org/2000/svg" xmlns:xlink="http://www.w3.org/1999/xlink" x="0px" y="0px" viewBox="0 0 618.7 487.3" style="enable-background:new 0 0 618.7 487.3;" xml:space="preserve">
<style type="text/css">
	.st0{display:none;}
	.st1{display:inline;fill:#F2F2F2;}
	.st2{display:inline;fill:#FFFFFF;}
	.st3{display:inline;fill:#E6E6E6;}
	.st4{display:inline;}
	.st5{fill:#FFFFFF;}
	.st6{display:inline;fill:#3F3D56;}
	.st7{display:inline;fill:#1E1E1E;}
	.st8{display:inline;fill:#F1F1F1;}
	.st9{display:inline;fill:#FFB7B7;}
	.st10{display:inline;fill:#2F2E41;}
	.st11{display:inline;fill:#9F616A;}
	.st12{display:inline;opacity:0.2;enable-background:new    ;}
	.st13{display:inline;fill:#CBCBCB;}
	.st14{fill:#F2F2F2;}
	.st15{fill:#2F2E41;}
	.st16{fill:#FFB9B9;}
	.st17{opacity:0.1;enable-background:new    ;}
	.st18{fill:#575A89;}
	.st19{opacity:0.2;enable-background:new    ;}
	.st20{fill:#1E1E1E;}
	.st21{opacity:0.2;fill:none;stroke:#000000;stroke-width:2;stroke-miterlimit:10;enable-background:new    ;}
	.st22{fill:none;stroke:#3F3D56;stroke-width:2;stroke-miterlimit:10;}
	.st23{fill:#3F3D56;}
	.st24{fill:#9F616A;}
	.st25{fill:#D0CDE1;}
	.st26{fill:#57B894;}
</style>
<g id="Layer_3" class="st0">
	<path class="st1" d="M293.3,487.2V274.8l-1.3-1.1l46.5-57.2c23.5-29,55-45.4,87.9-45.7l85.5-1l0.1,0.2l68.1,102.3l-0.2,2.8l0,212.2   "></path>
	<rect x="347.3" y="209.9" class="st2" width="171.4" height="2"></rect>
	<rect x="330.2" y="231.4" class="st2" width="171.4" height="2"></rect>
	<rect id="a2154f00-ed14-462d-b588-8472cd78aad3" x="570.1" y="372.1" class="st2" width="31.2" height="34.8"></rect>
	<rect id="eab3f4c7-6f92-4328-96cc-d5b6a118827f" x="570.1" y="311.9" class="st2" width="31.2" height="34.2"></rect>
	<rect x="533.3" y="173.2" class="st1" width="27.9" height="122.1"></rect>
	<path class="st3" d="M426.5,487.2V346.5c0-32.6,9.2-64,25.9-88.8l59.4-87.9l68.1,102.4v215.1"></path>
	<rect id="a6590c42-447c-4063-b06f-22960ea9e1c6" x="498.5" y="381.4" class="st2" width="31.2" height="34.8"></rect>
	<rect id="a578d772-16a5-40c1-af18-cd3a687ecce1" x="498.5" y="321.2" class="st2" width="31.2" height="34.2"></rect>
	<rect id="ed02d0f4-f24a-4a19-b524-9521b83f0535" x="349.7" y="372.1" class="st2" width="31.2" height="34.8"></rect>
	<rect id="b847f630-38c4-41e6-9edb-729b8a62aeb5" x="349.7" y="311.9" class="st2" width="31.2" height="34.2"></rect>
	<rect x="303.8" y="106.2" class="st1" width="33.9" height="148.3"></rect>
	<path class="st1" d="M12.6,487.2V229.5l-1.5-1.3l0.4-0.4l63.5-78.1c23.7-29.3,55.5-45.8,88.7-46.1l114.2-1.3l0.1,0.2l82.6,124.1   l-0.2,3.4l0,257.4"></path>
	<path class="st3" d="M174.3,487.2V298c0-27.5,7.8-54.2,21.9-75.1l81.5-120.7l82.6,124.1v261"></path>
	<rect id="ea84a9e5-6c52-4e5e-8073-8fad2571a91f" x="268.9" y="358.9" class="st2" width="30.1" height="33.6"></rect>
	<rect id="f19b6ec7-0e8c-4fff-907a-924d40e6f96c" x="268.9" y="300.5" class="st2" width="30.1" height="33.6"></rect>
	<rect id="acaff666-bc25-4fb5-a952-92ce00b7aba4" x="81" y="347.6" class="st2" width="37.8" height="42.2"></rect>
	<rect id="b161f5b0-b707-4bd0-97aa-6c4dd340fe66" x="81" y="274.6" class="st2" width="37.8" height="41.6"></rect>
	<g id="e6d5674b-00e7-4467-bab6-ed987278fef8_1_" class="st4">
		<path id="e1ce62fd-b420-4db2-ab4c-e67ce8dd22d3_1_" class="st5" d="M625.6,461.7c-0.4,0.3-0.9,0.2-1.4-0.1    c-0.1-0.1-0.2,0.1-0.1,0.2c0.5,0.3,1,0.4,1.5,0.1c0,0,0.1-0.1,0.1-0.2C625.7,461.7,625.6,461.7,625.6,461.7L625.6,461.7    L625.6,461.7z"></path>
	</g>
	<path id="a893f891-f54b-45a9-863c-d8f504ba27e5_4_" class="st6" d="M529.7,462.9"></path>
	<path id="a893f891-f54b-45a9-863c-d8f504ba27e5_2_" class="st6" d="M493,462.9"></path>
	<path id="e743b151-a501-4802-bd45-1d20431e6e42" class="st1" d="M299.2,184.4l-7.3-21.3l-14.6,0.3l-8.9,21.2l0.2,0.3h-0.1v44.2   h30.6v-44.2L299.2,184.4z"></path>
	<path id="f115d1b6-9c1d-4192-bab1-4c1681c44a09" class="st1" d="M526.5,237.7l-5.9-15.6l-11.8,0.2l-7.2,15.5l0.1,0.2h-0.1v32.3   h24.7v-32.3L526.5,237.7z"></path>
	<rect x="71.3" y="153.8" class="st2" width="171.4" height="2"></rect>
	<rect x="54.3" y="175.3" class="st2" width="171.4" height="2"></rect>
	<rect x="533.3" y="179.2" class="st2" width="27.9" height="2"></rect>
	<rect x="533.3" y="200.7" class="st2" width="27.9" height="2"></rect>
	<rect x="303.8" y="113.6" class="st2" width="33.9" height="2"></rect>
	<rect x="303.8" y="135.1" class="st2" width="33.9" height="2"></rect>
</g>
<g id="b89bf718-7a91-4c53-bd44-87446f6864fe" class="st0">
	<ellipse id="eaa25ba1-fb02-4ae1-bc1b-a61530bf454c" class="st6" cx="92.7" cy="401.1" rx="24" ry="51.4"></ellipse>
	<path id="b4bf8935-d3ff-4e35-bb4f-d79f2288d23a" class="st7" d="M94.9,485.2c-9.6-60.5-0.1-120.9,0-121.5l1.9,0.3   c-0.1,0.6-9.6,60.6,0,120.8"></path>
	<polygon id="b9f9a211-6e99-401f-90e8-cf0ebb439f20" class="st7" points="92.1,402.2 113.8,390 114.7,391.8 93,403.9  "></polygon>
	<polygon id="e0f316f7-4b6f-4546-8015-4a3c859d357e" class="st7" points="69.2,397.9 70.1,396.1 91.8,408.3 90.9,410.1  "></polygon>
	<ellipse id="f9fb50b4-1b5d-416e-9e0d-266f30cba72e" class="st7" cx="34.6" cy="364.9" rx="34.6" ry="74.2"></ellipse>
	<path id="a800d1c2-f743-4d93-bec2-cff0f953733c" class="st6" d="M38.5,486.2c-13.8-87.3-0.1-174.2,0-175.1l1.4,0.2   c-0.1,0.9-13.8,87.6,0,174.6"></path>
	<polygon id="fb01bfd3-0095-4a66-b946-3896d80fc39c" class="st6" points="34.1,367.1 65.4,349.5 66.1,350.8 34.8,368.4  "></polygon>
	<polygon id="b67993a5-f0ea-4993-bd83-fcb2f25516f5" class="st6" points="1.1,359.6 1.7,358.3 33,375.9 32.4,377.2  "></polygon>
	<path id="a58bbeb0-9bd3-48cd-81c7-bf267a60ca0e" class="st6" d="M349.7,100.1l7.6-6.4c-5.9-0.7-8.3,2.7-9.3,5.4   c-4.6-2-9.6,0.6-9.6,0.6l15.2,5.8C352.8,103.4,351.5,101.5,349.7,100.1L349.7,100.1z"></path>
	<path id="f9b938cf-521f-4b64-a4af-443f90f250ff" class="st6" d="M212.2,67.9l7.6-6.1c-5.9-0.7-8.3,2.6-9.3,5.1   c-4.6-1.9-7,1.1-7,1.1l12.5,5C215.2,71,213.9,69.2,212.2,67.9z"></path>
	<path id="a8da215e-7841-4236-9b2d-2b5040889003" class="st6" d="M403.6,62.9l7.6-6.4c-5.9-0.7-8.3,2.7-9.3,5.4   c-4.6-2-9.6,0.6-9.6,0.6l15.2,5.8C406.7,66.1,405.4,64.2,403.6,62.9L403.6,62.9z"></path>
	<path id="f0e6e0e6-42da-4f68-a4c7-39fa16634762" class="st6" d="M212.5,485.6c-0.4-6.3-5.4-11.3-11.5-11.3l0,0c-2,0-4,0.6-5.7,1.6   c-5.1-4.8-12.9-4.4-17.4,0.9c-2.1,2.4-3.2,5.5-3.2,8.7"></path>
	<path id="a1a48b26-c08c-4af6-a63a-aec9264485a6" class="st6" d="M409.5,485.6c-0.4-6.3-5.4-11.3-11.5-11.3c-2,0-4,0.6-5.7,1.6   c-5.1-4.8-12.9-4.4-17.4,0.9c-2.1,2.4-3.2,5.5-3.2,8.7"></path>
	<ellipse id="fb6c0aeb-9c49-4f71-adc3-f096e0d8dfbf" class="st3" cx="583.7" cy="412.6" rx="21" ry="45"></ellipse>
	<path id="b1a6d698-dda0-490a-ac80-38ce87516ad9" class="st6" d="M581.3,486.2c8.4-53,0.1-105.7,0-106.2l-0.8,0.2   c0.1,0.5,8.4,53.1,0,105.9"></path>
	<polygon id="ec111ffd-238a-4858-990a-57023cafb3d8" class="st6" points="564.6,404.1 565,403.3 584,414 583.6,414.7  "></polygon>
	<polygon id="e635c501-1628-42d4-a3a5-c4826c51f25c" class="st6" points="584.6,419.3 603.6,408.6 604,409.4 585,420.1  "></polygon>
	<g id="e6d5674b-00e7-4467-bab6-ed987278fef8" class="st4">
		<path id="e1ce62fd-b420-4db2-ab4c-e67ce8dd22d3" class="st5" d="M558.3,466.6c-0.4,0.2-0.8,0.2-1.2-0.1c-0.1-0.1-0.2,0.1-0.1,0.2    c0.4,0.3,0.9,0.3,1.3,0.1c0,0,0.1-0.1,0.1-0.1C558.4,466.6,558.4,466.6,558.3,466.6L558.3,466.6L558.3,466.6z"></path>
	</g>
	<path id="a893f891-f54b-45a9-863c-d8f504ba27e5_3_" class="st6" d="M487,467.4"></path>
	<path id="a893f891-f54b-45a9-863c-d8f504ba27e5_1_" class="st6" d="M454.3,467.4"></path>
</g>
<g id="Layer_2" class="st0">
	<rect x="490.1" y="268.2" class="st2" width="24.9" height="1.4"></rect>
	<path class="st8" d="M502.4,486.5v-38.6C502.4,447.9,517.5,475.2,502.4,486.5z"></path>
	<path class="st8" d="M503.4,486.5l-28.4-26.1C474.9,460.4,505.3,467.8,503.4,486.5z"></path>
	<path class="st9" d="M328.6,312.1c0.2,0.2,0.4,0.5,0.6,0.7l27.2-0.7l3.2-5.8l9.4,3.7l-4.6,10.8c-0.8,1.8-2.6,2.9-4.6,2.6l-30.8-3.7   c-2,2.5-5.6,2.9-8.1,1s-2.9-5.6-1-8.1c2-2.5,5.6-2.9,8.1-1C328.2,311.8,328.4,311.9,328.6,312.1L328.6,312.1z"></path>
	<polygon class="st9" points="417.4,477.6 408.4,477.6 404.2,443 417.4,443  "></polygon>
	<path class="st10" d="M419.7,486.2l-28.9,0v-0.4c0-6.2,5-11.2,11.2-11.2h0l17.6,0L419.7,486.2z"></path>
	<polygon class="st9" points="336.1,477.4 327.8,473.8 337.5,440.4 349.6,445.6  "></polygon>
	<path class="st10" d="M334.7,486.2l-26.6-11.3l0.1-0.3c2.4-5.7,9-8.4,14.8-5.9l0,0l16.2,6.9L334.7,486.2z"></path>
	<polygon class="st9" points="373.9,319.6 373.2,330.1 392.1,332.1 411.9,334.2 406.1,318.3  "></polygon>
	<path class="st10" d="M372.6,330.2l-7.4-51.3l12.7-4.2l3.7-5.1l18.2,1.1l2.7,6l9.7,4.6l-1.5,27.7l1.1,23.2L372.6,330.2z"></path>
	<path class="st10" d="M368,316.5l-13-5.2l0.1-0.2c0.1-0.2,5.6-23.3,6.3-27c0.8-3.9,3.6-4.9,3.7-5l0.1,0l5.1,1.6l2.3,17.7L368,316.5   z"></path>
	<path class="st10" d="M342.7,471.3l-17.3-3.5l27.6-76.1l9.4-26c0,0,6-20.8,8.7-28.9l1.6-10.8l38.7,4.3c0,0,10.8,15.9,7.5,41.7   l1.5,97.1l-17.3,0.9l-14.5-98l-25.4,53.7c0,0-8,22.9-13.7,27.9L342.7,471.3z"></path>
	<path class="st9" d="M396,333.8c0.3,0,0.6,0,0.9,0.1l18-20.4l-2.1-6.3l9.1-4.4l4.8,10.8c0.8,1.8,0.3,3.9-1.2,5.1l-23.7,20   c0.5,3.1-1.7,6.1-4.8,6.6c-3.1,0.5-6.1-1.7-6.6-4.8c-0.5-3.1,1.7-6.1,4.8-6.6C395.5,333.9,395.7,333.8,396,333.8L396,333.8z"></path>
	<path class="st10" d="M413.5,315.5l-7.5-17.7l2.9-12.3l3.2-4c0.5-0.2,1-0.2,1.5,0c1.2,0.5,2.2,1.9,3,4.3l7,20.1L413.5,315.5z"></path>
	<path class="st10" d="M374.5,263.1v-13.3c0-9.9,8-17.9,17.9-17.9c9.9,0,17.9,8,17.9,17.9v13.3c0,1.3-1.1,2.4-2.4,2.4h-30.9   C375.5,265.5,374.5,264.4,374.5,263.1z"></path>
	<circle class="st9" cx="388.7" cy="252.1" r="13.1"></circle>
	<path class="st10" d="M370.2,250.8c0-7.8,6.3-14.1,14.1-14.1h2.7c7.8,0,14.1,6.3,14.1,14.1v0.3h-5.6l-1.9-5.4l-0.4,5.4h-2.9l-1-2.7   l-0.2,2.7h-18.9V250.8z"></path>
	<path class="st10" d="M387.4,267c-0.5-0.7-0.6-1.7-0.2-2.5c2.8-5.4,6.8-15.3,1.5-21.4l-0.4-0.4h15.3v22.9l-13.9,2.4   c-0.1,0-0.3,0-0.4,0C388.5,268,387.8,267.6,387.4,267z"></path>
	<polygon class="st11" points="209.4,470 217.5,472.9 232.5,443.1 220.6,438.8  "></polygon>
	<path class="st10" d="M204.5,477.1l3.7-10.5l15.9,5.7c5.6,2,8.5,8.2,6.5,13.8l-0.1,0.3L204.5,477.1z"></path>
	<polygon class="st11" points="262.1,478 270.7,478 274.7,444.9 262.1,444.9  "></polygon>
	<path class="st10" d="M259.9,475.2l16.9,0h0c6,0,10.8,4.8,10.8,10.8v0v0.4l-27.7,0L259.9,475.2z"></path>
	<path class="st8" d="M242.5,266.2l3.7-7.4c0,0,13.9,3.5,15.2,11.6L242.5,266.2z"></path>
	<polygon class="st10" points="227,350.6 237.2,407.4 210.2,455.1 226.3,461.4 253.7,415.2 257.2,402.5 259.3,468.4 273.8,468    280.5,406.5 269.8,349.2  "></polygon>
	<path class="st6" d="M246.3,364.1c-14.9,0-24.4-2.9-24.6-2.9l-0.3-0.1l7.8-36.1l0.4-33.3c0-14.1,9.3-24.5,10.6-25.5   c0.4-1.7,1.6-3.2,3.2-4c3.1-1.4,6.9,0.3,7,0.4l11.4,4.3l0.1,0.2c0.1,0.4,15.1,49.5,15.1,49.5s-0.9,42.9-1.2,44.3   C275.6,360.9,254.6,364.1,246.3,364.1z"></path>
	<circle class="st11" cx="257.8" cy="241.1" r="15.3"></circle>
	<polygon class="st12" points="240.7,294.5 267.6,331.9 271.5,314.4  "></polygon>
	<path class="st11" d="M324.9,319.9c-2.9,2.3-7,1.8-9.2-1.1c-0.2-0.3-0.5-0.6-0.6-1l-23.1,3.7l5-11.1l21.2-1.8   c3.3-1.5,7.3,0,8.8,3.3C328.1,314.8,327.3,318.1,324.9,319.9z"></path>
	<polygon class="st8" points="298.1,309.9 306.4,309.1 308.7,320.6 298.2,320.8  "></polygon>
	<path class="st6" d="M304.9,324.7l-40.7-3.6l-20.5-32.7l-0.1-0.3c-1.3-6.1,2.5-12.1,8.6-13.4c5-1.1,10.1,1.3,12.4,5.9l12.1,23.5   l24.3,3.7L304.9,324.7z"></path>
	<path class="st10" d="M244.7,254.4l12.7,0.5c0.8,0,2.9-8.4,3.2-10.1c0.5-2.3,2.6-4,4.9-3.8c1,0.1,3.4-1.7,5.8-3.8   c4.7-4,4.5-11.5-0.7-14.9c-0.1-0.1-0.3-0.2-0.4-0.3c-3.3-1.8-7.1-2.4-10.8-2.5c-3.4,0-6.9,0.4-9.9,2c-5.4,2.9-8.2,9.2-8.5,15.2   c-0.3,6.1,1.7,12,3.9,17.7"></path>
	<path class="st13" d="M536.6,486.8H140c-0.3,0-0.5-0.2-0.5-0.5c0-0.3,0.2-0.5,0.5-0.5h396.7c0.3,0,0.5,0.2,0.5,0.5   C537.3,486.6,536.9,486.8,536.6,486.8z"></path>
</g>
<g id="Layer_4">
	<circle class="st14" cx="265.6" cy="249.2" r="207.3"></circle>
	<ellipse class="st14" cx="86.1" cy="472.1" rx="82.3" ry="13.2"></ellipse>
	<ellipse class="st14" cx="487.3" cy="451.5" rx="127.3" ry="20.4"></ellipse>
	<path class="st15" d="M459.1,255.8c0,0,1.1,3.6-5.1,6.9c-6.1,3.3-7.9,15.5-0.7,19.1s9.4,8.3,5.8,11.6c-3.6,3.3-10.1,11.9-1.4,14.1   s9.8,6.5,7.2,8.3c-2.5,1.8,5.8-3.3,5.8-3.3s1.4,8.7,9,6.5c7.6-2.2,28.9-43.3,18.1-49.1C486.9,264.1,459.1,255.8,459.1,255.8z"></path>
	<path class="st16" d="M472.2,290.7c0,0,3.7,13.1-2.8,14c-4.1,0.6-7.9,2.2-11.2,4.7l12.2,15.9h22.5l14-14c0,0-18.7-14-15-22.5   C495.6,280.4,472.2,290.7,472.2,290.7z"></path>
	<path class="st17" d="M472.2,290.7c0,0,3.7,13.1-2.8,14c-4.1,0.6-7.9,2.2-11.2,4.7l12.2,15.9h22.5l14-14c0,0-18.7-14-15-22.5   C495.6,280.4,472.2,290.7,472.2,290.7z"></path>
	<polygon class="st16" points="477.8,453.6 499.3,461.1 514.3,462.1 513.4,448.9 482.5,439.8  "></polygon>
	<path class="st18" d="M505.4,450.8c0,0,0,13.1,1.9,13.1s27.2-2.8,34.7,0c7.5,2.8,18.7-7.5,13.1-13.1c-5.6-5.6-14.8-14-20.5-12.2   c-5.7,1.9-29.1,6.6-29.1,6.6V450.8z"></path>
	<path class="st18" d="M436.6,438.6c0,0-11.2,22.5-3.7,24.4s15.9-0.9,16.9-1.9c0.9-0.9,14-4.7,15.9-2.8s1.9-7.5,1.9-7.5L436.6,438.6   z"></path>
	<path class="st15" d="M445.9,407.7c0,0-17.8,24.4-4.7,30.9c13.1,6.6,75.9,6.6,80.6,0c4.7-6.6,6.6-27.2,0-29   C515.2,407.7,445.9,407.7,445.9,407.7z"></path>
	<path class="st19" d="M445.9,407.7c0,0-17.8,24.4-4.7,30.9c13.1,6.6,75.9,6.6,80.6,0c4.7-6.6,6.6-27.2,0-29   C515.2,407.7,445.9,407.7,445.9,407.7z"></path>
	<circle class="st16" cx="479.6" cy="275.7" r="21.5"></circle>
	<path class="st20" d="M445.9,309.4l18.7-3.7c0,0,4.7,15,19.7,12.2c15-2.8,18.7-12.2,18.7-12.2s11.2,4.7,12.2,4.7s13.1,4.7,13.1,7.5   s-14,30.9-14,30.9l1.9,50.6l-69.3-1.9l4.7-49.6L445.9,309.4z"></path>
	<path class="st16" d="M435.6,333.7c0,0-5.6,49.6-1.9,53.4c3.7,3.7,18.7,14,18.7,14v-11.2l-7.5-14l7.5-32.8L435.6,333.7z"></path>
	<path class="st16" d="M532.6,332.3c0,0-3.3,51-3.3,52.9s-8.4,8.4-11.2,8.4c-2.8,0-4.7-4.7-4.7-4.7l6.6-7.5l-4.7-38.4L532.6,332.3z"></path>
	<path class="st15" d="M523.7,404c0,0,42.1-23.4,43.1,0s-21.5,32.8-21.5,32.8s-58.1,17.4-60.4,11s-7-16.7-3.3-17.6   c3.7-0.9,8.4-2.8,10.3-0.9c1.9,1.9,25.3-14,25.3-14L523.7,404z"></path>
	<path class="st21" d="M543.3,401.2c0,0-8.4,3.7-11.2,6.6c-2.8,2.8-15,7.5-15,7.5"></path>
	<path class="st20" d="M451.5,311.3l-5.6-1.9c0,0-20.6,21.5-14,27.2c6.6,5.6,10.3,7.5,12.2,9.4s11.2,2.8,11.2,2.8L451.5,311.3z"></path>
	<path class="st20" d="M519.9,315.9l8.4,1.9c0,0,6.6,14,8.4,15.9c1.9,1.9-2.8,0.9-5.6,4.7s-5.6,10.3-11.2,10.3s-13.1-9.4-13.1-9.4   L519.9,315.9z"></path>
	<path class="st15" d="M447.8,412.4c0,0-35.6-25.3-47.8-6.6s52.5,44,61.8,47.8c9.4,3.7,17.8,7.5,17.8,7.5s8.4-20.6,8.4-24.4   c0-3.7-6.6-3.7-8.4-3.7s-10.3-1.9-12.2-4.7S447.8,412.4,447.8,412.4z"></path>
	<path class="st21" d="M428.1,405.9c0,0,9.4,7.5,17.8,9.4c8.4,1.9,11.2,6.6,11.2,6.6"></path>
	<path class="st18" d="M441.3,370.6l0.7,39.7c0.1,2.7,2.3,4.9,5,4.9l73.8-0.8c2.6,0,4.8-2.1,4.9-4.7l2.2-38.8   c0.2-2.7-1.9-5.1-4.7-5.2c-0.1,0-0.2,0-0.3,0h-76.8C443.6,365.6,441.3,367.8,441.3,370.6C441.3,370.6,441.3,370.6,441.3,370.6z"></path>
	<path class="st15" d="M480.8,248.6c0,0,1.2,4-5.6,7.6c-6.8,3.6-8.8,17.2-0.8,21.2s10.4,9.2,6.4,12.8c-4,3.6-11.2,13.2-1.6,15.6   c9.6,2.4,10.8,7.2,8,9.2c-2.8,2,6.4-3.6,6.4-3.6s1.6,9.6,10,7.2c8.4-2.4,16.8-46,7.4-57.3C502.3,250.9,480.8,248.6,480.8,248.6z"></path>
	<path class="st15" d="M478.2,244.5c0-5.9,17.5-1.6,25.1,6.5c5.2,5.7,13.1,14.2,6.5,20.2c-6.6,6,11.4,13.9,16.2,16.3   c4.8,2.4,14.3,9.7,5.7,14.6c-8.6,4.9-8.5,9.8-5.2,11s-7.1-1.7-7.1-1.7s1,9.7-7.7,9.6c-8.7,0-33.8-48.1-27.8-61.4   C489.4,247.2,478.2,244.5,478.2,244.5z"></path>
	<path class="st15" d="M482,243.2c-23.5-1.4-25.8,16.2-25.8,16.2c0.2,10.2,16.4,5.2,20.9,6.8c5.4-3.9,15.9-11.3,23.4-16.6   C495.1,245.8,488.7,243.6,482,243.2z"></path>
	<path class="st22" d="M475.4,355.9c0,0-21-98.6-152.7-170.1"></path>
	<polygon class="st23" points="328.1,183.6 328.3,184.7 323,186 324.7,191.2 323.6,191.5 321.6,185.2  "></polygon>
	<path class="st20" d="M41.9,456.6c0,12.5-7.4,16.8-16.6,16.8c-0.2,0-0.4,0-0.6,0c-0.4,0-0.8,0-1.3-0.1c-8.3-0.6-14.7-5.2-14.7-16.8   c0-12,15.4-27.2,16.5-28.3l0,0c0,0,0.1-0.1,0.1-0.1S41.9,444.1,41.9,456.6z"></path>
	<path class="st23" d="M24.7,471.5l6.1-8.5l-6.1,9.4l0,1c-0.4,0-0.8,0-1.3-0.1l0.7-12.5l0-0.1l0,0l0.1-1.2l-6.1-9.4l6.1,8.5l0,0.3   l0.5-9.4l-5.2-9.7l5.3,8.1l0.5-19.6l0-0.1v0.1l-0.1,15.4l5.2-6.1l-5.2,7.4l-0.1,8.5l4.9-8.1l-4.9,9.4l-0.1,4.7l7-11.3l-7.1,12.9   L24.7,471.5z"></path>
	<path class="st15" d="M121,453.4l3.5-2.6c0,0,2.3,13.1-0.3,15.1c-2.6,2-12.4,5.2-12.4,9.2s-22.3,9.2-22.9,3.3s2-9.2,2-9.2   s10.5-10.5,11.8-12.4c1.3-2,4.6-5.9,4.6-5.9L121,453.4z"></path>
	<path class="st15" d="M68.6,290.3c0,0,0.1,0.6,0.3,1.6c0.2,0.9,0.4,2.3,0.6,3.9c2.8,16.8,10.8,66.2,10.2,67.8   c-0.7,2-5.2,9.2,0,11.1c0.5,0.2,1,0.8,1.6,1.8c1.1,2.1,2.1,4.3,2.8,6.5c3.1,9.1,6.5,23.6,8.4,33.6c0.8,4.4,1.4,8,1.6,9.8   c0.1,0.4,0.1,0.9,0,1.3c-0.7,2.6,3.9,11.8,5.9,14.4c2,2.6,5.2,5.2,4.6,7.9s16.4,9.8,18.3,5.2c2-4.6,2-7.2,2.6-8.5   c0.7-1.3,1.3-10.5-2-11.8c-3.3-1.3-1.3-24.2-4.6-28.8c-1.1-1.5-2.8-6.7-4.5-12.9c-0.7-2.4-1.4-5-2.1-7.6   c-2.8-10.7-5.2-21.4-5.2-21.4l0.7-76.6l-36-4.6l-0.9,2l-1.8,4L68.6,290.3z"></path>
	<path class="st15" d="M66.6,416c0,0-5.2-5.2-7.9,0c-2.6,5.2-5.2,25.5-9.8,30.1S38.4,473.7,45,475c6.5,1.3,13.8-2,14.4-5.9   c0.7-3.9,14.4-24.2,14.4-26.2s-9.2-9.2-9.2-9.2L66.6,416z"></path>
	<path class="st15" d="M147.2,254.3c0,0-8.5,76.6-10.5,83.8c-2,7.2-12.4,34.7-15.7,39.3s-24.2,41.9-26.9,43.9   c-2.6,2-7.9,7.2-7.9,7.2s-9.8,9.8-11.1,11.8c-1.3,2-12.4-3.9-13.1-7.9c-0.7-3.9,0.7-10.5,1.3-13.1c0.7-2.6-1.3-6.5,0.7-8.5   c2-2,11.8-11.8,11.8-16.4s17-31.4,23.6-37.3s5.2-15.7,5.2-15.7v-40l-36-11.1c0,0,2-31.4,6.5-31.4C79.7,258.8,140,248.4,147.2,254.3   z"></path>
	<circle class="st24" cx="94.1" cy="123.3" r="21.6"></circle>
	<path class="st24" d="M101.3,140.3c0,0,2.6,9.8,5.9,12.4c3.3,2.6-8.5,13.8-8.5,13.8l-22.3,1.3l-3.9-12.4c0,0,7.2-14.4,5.2-23.6   C75.8,122.6,101.3,140.3,101.3,140.3z"></path>
	<path class="st20" d="M110.5,151.4c0,0-5.9,0.7-7.2,2.6c-1.3,2-10.5,7.9-17.7,6.5c-7.2-1.3-11.8-3.3-13.1-2.6   c-1.3,0.7-3.9,14.4-3.9,14.4l7.2,21L74.5,251l-2,15.7c0,0-3.9-5.2,11.8-2s36-2.6,42.6-3.3c6.5-0.7,17.7-2.6,18.3-6.5   s-2-18.3-2-18.3l-10.5-43.9l-6.5-23.6L110.5,151.4z"></path>
	<path class="st25" d="M104.3,148.5c0,0,5.5-2.9,7.5-0.3c2,2.6,26.9,6.5,26.9,8.5s5.2,55,3.9,59.6c-1.3,4.6,2.6,9.8,2.6,9.8   l4.6,19.6c0,0,12.4,37.3,7.2,38.6s-9.8,0-11.8,0s-1.3-24.9-6.5-31.4s-12.4-22.9-13.8-26.2c-1.3-3.3-17.7-48.5-17-53.7   S104.3,148.5,104.3,148.5z"></path>
	<path class="st25" d="M77.1,151.4c0,0-5.2,0-5.9,1.3c-0.7,1.3-7.2,9.8-9.8,11.8S49.6,175,49.6,177c0,2,19,16.4,19,16.4   s7.9,38.6,3.9,51.7c-3.9,13.1-9.8,44.5-7.2,46.5c2.6,2,8.5,2.6,8.5,0s3.9-30.8,7.2-36.7c3.3-5.9,13.1-43.2,9.2-53.7   C86.2,190.7,77.1,151.4,77.1,151.4z"></path>
	<path class="st24" d="M163.5,216.3c0,0,0.7,20.3-6.5,30.8c-7.2,10.5-11.8,22.3-11.8,22.3s-11.8-3.3-13.8-7.2   c-2-3.9-14.4-0.7-14.4-2s15.1-7.9,16.4-9.2c1.3-1.3,5.9-1.3,8.5-3.9c2.6-2.6,3.3-8.5,3.3-8.5l2.6-17L163.5,216.3z"></path>
	<path class="st15" d="M109,109.9c1.7-0.2,3.4-0.3,4.8-1.1c3.3-1.8,4.2-6.8,1.7-9.6c-0.7-0.7-1.5-1.3-2.3-1.9l-5-3.4   c-2.2-1.5-4.5-3-7-3.7c-2.3-0.6-4.8-0.6-7.2-0.4c-4.7,0.3-9.4,0.9-13.8,2.5c-4.4,1.6-8.5,4.3-11.1,8.2c-4.2,6.1-4.3,14.3-2,21.4   c2.3,7,6.7,13.2,11.1,19.2l2.3-11c0.2-1,0.5-2.1,1.3-2.6c2-1.4,4.5,1.5,7,1.5c1.6,0,2.9-1.3,3.5-2.8c0.6-1.5,0.6-3.1,0.8-4.7   c0.3-3.4,1.5-8.1,4.7-9.9C100.7,109.7,105.7,110.2,109,109.9z"></path>
	<path class="st17" d="M107.8,290.8c0,0-2.2,64-3.5,65.9c-1.3,2,0-66.1,0-66.1L107.8,290.8z"></path>
	<path class="st25" d="M133.4,156.7h5.2c0,0,22.3,30.1,19.6,32.1c-2.6,2,0,7.2,0,7.2l5.2,9.8c0,0,6.5,5.9,4.6,7.2   c-2,1.3-4.6,6.5-4.6,6.5s-13.1-2-17,5.9l-8.5-10.7L133.4,156.7z"></path>
	
		<rect x="123.5" y="168.7" transform="matrix(0.9243 -0.3817 0.3817 0.9243 -61.2225 64.9778)" class="st15" width="19.5" height="36.2"></rect>
	
		<ellipse transform="matrix(0.9243 -0.3817 0.3817 0.9243 -59.757 64.1318)" class="st20" cx="131.8" cy="182.7" rx="3.9" ry="3.6"></ellipse>
	<path class="st24" d="M120.3,209.1c0,0-47.2,39.3-55,26.9c-7.9-12.4,8.5-22.9,8.5-22.9s14.4,0.7,30.8-9.8L121,196   c0,0,14.9-21.3,20-13.2C146.1,190.9,132.3,205,120.3,209.1z"></path>
	<path class="st25" d="M56.8,174.3l-7.2,2.6v19.6l-2.6,3.9c0,0,0.7,7.9,2.6,9.8c2,2,5.9,1.3,4.6,5.9c-0.8,3-1,6.1-0.7,9.2   c0,0,11.8,15.1,12.4,13.1s9.8-26.2,11.1-26.2c1.3,0-13.1-38-13.1-38H56.8z"></path>
	<path class="st15" d="M142.9,273.6c0,0,6.8-6.5,3.4-6.9c-3.4-0.3-15.2-6.9-17.1-3.6C127.2,266.4,142.9,273.6,142.9,273.6z"></path>
	<ellipse class="st26" cx="271.7" cy="143.6" rx="9.4" ry="5"></ellipse>
	<path class="st22" d="M307.8,160.3c-21.3-8-42.6-8-63.9,0v-26.1c20.8-6.3,43.1-6.3,63.9,0V160.3z"></path>
	<path class="st22" d="M298.9,154.9c-15.4-5.8-30.8-5.8-46.1,0v-18.9c15-4.5,31.1-4.5,46.1,0V154.9z"></path>
	<ellipse class="st22" cx="275" cy="141.4" rx="9.4" ry="5"></ellipse>
	<ellipse transform="matrix(0.9798 -0.2 0.2 0.9798 -29.3992 59.0582)" class="st26" cx="277.6" cy="175.1" rx="9.4" ry="5"></ellipse>
	<path class="st22" d="M316.4,184.2c-22.5-3.6-43.4,0.6-62.6,12.8l-5.2-25.6c19.2-10.3,40.9-14.8,62.6-12.8L316.4,184.2z"></path>
	<path class="st22" d="M306.6,180.7c-16.2-2.6-31.3,0.5-45.2,9.2l-3.8-18.5c13.8-7.5,29.6-10.7,45.2-9.2L306.6,180.7z"></path>
	<ellipse transform="matrix(0.9798 -0.2 0.2 0.9798 -28.7732 59.5652)" class="st22" cx="280.5" cy="172.2" rx="9.4" ry="5"></ellipse>
	
		<ellipse transform="matrix(6.941868e-02 -0.9976 0.9976 6.941868e-02 50.8986 466.86)" class="st26" cx="275.7" cy="206.1" rx="5" ry="9.4"></ellipse>
	<path class="st22" d="M310.6,225.3c-20.7-9.5-41.9-11-63.8-4.4l1.8-26.1c21.2-4.8,43.4-3.3,63.8,4.4L310.6,225.3z"></path>
	<path class="st22" d="M302.1,219.3c-14.9-6.9-30.3-7.9-46-3.2l1.3-18.8c15.3-3.5,31.3-2.4,46,3.2L302.1,219.3z"></path>
	
		<ellipse transform="matrix(6.941868e-02 -0.9976 0.9976 6.941868e-02 56.1192 468.4841)" class="st22" cx="279.2" cy="204.2" rx="5" ry="9.4"></ellipse>
	<path class="st22" d="M234.4,160.9c0,0-40.8-5.6-70,11.5"></path>
	<polygon class="st23" points="165.4,166.7 166.4,167 164.8,172.2 170.1,173.5 169.9,174.6 163.4,173  "></polygon>
</g>
</svg>