<svg xmlns="http://www.w3.org/2000/svg" xmlns:xlink="http://www.w3.org/1999/xlink" x="0px" y="0px" viewBox="0 0 618.7 487.3" style="enable-background:new 0 0 618.7 487.3;" xml:space="preserve">
<style type="text/css">
	.st0{fill:#F2F2F2;}
	.st1{fill:#FFFFFF;}
	.st2{fill:#E6E6E6;}
	.st3{fill:#3F3D56;}
	.st4{fill:#1E1E1E;}
	.st5{fill:#F1F1F1;}
	.st6{fill:#FFB7B7;}
	.st7{fill:#2F2E41;}
	.st8{fill:#9F616A;}
	.st9{opacity:0.2;enable-background:new    ;}
	.st10{fill:#CBCBCB;}
</style>
<g id="Layer_3">
	<path class="st0" d="M293.3,487.2V274.8l-1.3-1.1l46.5-57.2c23.5-29,55-45.4,87.9-45.7l85.5-1l0.1,0.2l68.1,102.3l-0.2,2.8l0,212.2   "></path>
	<rect x="347.3" y="209.9" class="st1" width="171.4" height="2"></rect>
	<rect x="330.2" y="231.4" class="st1" width="171.4" height="2"></rect>
	<rect id="a2154f00-ed14-462d-b588-8472cd78aad3" x="570.1" y="372.1" class="st1" width="31.2" height="34.8"></rect>
	<rect id="eab3f4c7-6f92-4328-96cc-d5b6a118827f" x="570.1" y="311.9" class="st1" width="31.2" height="34.2"></rect>
	<rect x="533.3" y="173.2" class="st0" width="27.9" height="122.1"></rect>
	<path class="st2" d="M426.5,487.2V346.5c0-32.6,9.2-64,25.9-88.8l59.4-87.9l68.1,102.4v215.1"></path>
	<rect id="a6590c42-447c-4063-b06f-22960ea9e1c6" x="498.5" y="381.4" class="st1" width="31.2" height="34.8"></rect>
	<rect id="a578d772-16a5-40c1-af18-cd3a687ecce1" x="498.5" y="321.2" class="st1" width="31.2" height="34.2"></rect>
	<rect id="ed02d0f4-f24a-4a19-b524-9521b83f0535" x="349.7" y="372.1" class="st1" width="31.2" height="34.8"></rect>
	<rect id="b847f630-38c4-41e6-9edb-729b8a62aeb5" x="349.7" y="311.9" class="st1" width="31.2" height="34.2"></rect>
	<rect x="303.8" y="106.2" class="st0" width="33.9" height="148.3"></rect>
	<path class="st0" d="M12.6,487.2V229.5l-1.5-1.3l0.4-0.4l63.5-78.1c23.7-29.3,55.5-45.8,88.7-46.1l114.2-1.3l0.1,0.2l82.6,124.1   l-0.2,3.4l0,257.4"></path>
	<path class="st2" d="M174.3,487.2V298c0-27.5,7.8-54.2,21.9-75.1l81.5-120.7l82.6,124.1v261"></path>
	<rect id="ea84a9e5-6c52-4e5e-8073-8fad2571a91f" x="268.9" y="358.9" class="st1" width="30.1" height="33.6"></rect>
	<rect id="f19b6ec7-0e8c-4fff-907a-924d40e6f96c" x="268.9" y="300.5" class="st1" width="30.1" height="33.6"></rect>
	<rect id="acaff666-bc25-4fb5-a952-92ce00b7aba4" x="81" y="347.6" class="st1" width="37.8" height="42.2"></rect>
	<rect id="b161f5b0-b707-4bd0-97aa-6c4dd340fe66" x="81" y="274.6" class="st1" width="37.8" height="41.6"></rect>
	<g id="e6d5674b-00e7-4467-bab6-ed987278fef8_1_">
		<path id="e1ce62fd-b420-4db2-ab4c-e67ce8dd22d3_1_" class="st1" d="M625.6,461.7c-0.4,0.3-0.9,0.2-1.4-0.1    c-0.1-0.1-0.2,0.1-0.1,0.2c0.5,0.3,1,0.4,1.5,0.1c0,0,0.1-0.1,0.1-0.2C625.7,461.7,625.6,461.7,625.6,461.7L625.6,461.7    L625.6,461.7z"></path>
	</g>
	<path id="a893f891-f54b-45a9-863c-d8f504ba27e5_4_" class="st3" d="M529.7,462.9"></path>
	<path id="a893f891-f54b-45a9-863c-d8f504ba27e5_2_" class="st3" d="M493,462.9"></path>
	<path id="e743b151-a501-4802-bd45-1d20431e6e42" class="st0" d="M299.2,184.4l-7.3-21.3l-14.6,0.3l-8.9,21.2l0.2,0.3h-0.1v44.2   h30.6v-44.2L299.2,184.4z"></path>
	<path id="f115d1b6-9c1d-4192-bab1-4c1681c44a09" class="st0" d="M526.5,237.7l-5.9-15.6l-11.8,0.2l-7.2,15.5l0.1,0.2h-0.1v32.3   h24.7v-32.3L526.5,237.7z"></path>
	<rect x="71.3" y="153.8" class="st1" width="171.4" height="2"></rect>
	<rect x="54.3" y="175.3" class="st1" width="171.4" height="2"></rect>
	<rect x="533.3" y="179.2" class="st1" width="27.9" height="2"></rect>
	<rect x="533.3" y="200.7" class="st1" width="27.9" height="2"></rect>
	<rect x="303.8" y="113.6" class="st1" width="33.9" height="2"></rect>
	<rect x="303.8" y="135.1" class="st1" width="33.9" height="2"></rect>
</g>
<g id="b89bf718-7a91-4c53-bd44-87446f6864fe">
	<ellipse id="eaa25ba1-fb02-4ae1-bc1b-a61530bf454c" class="st3" cx="92.7" cy="401.1" rx="24" ry="51.4"></ellipse>
	<path id="b4bf8935-d3ff-4e35-bb4f-d79f2288d23a" class="st4" d="M94.9,485.2c-9.6-60.5-0.1-120.9,0-121.5l1.9,0.3   c-0.1,0.6-9.6,60.6,0,120.8"></path>
	<polygon id="b9f9a211-6e99-401f-90e8-cf0ebb439f20" class="st4" points="92.1,402.2 113.8,390 114.7,391.8 93,403.9  "></polygon>
	<polygon id="e0f316f7-4b6f-4546-8015-4a3c859d357e" class="st4" points="69.2,397.9 70.1,396.1 91.8,408.3 90.9,410.1  "></polygon>
	<ellipse id="f9fb50b4-1b5d-416e-9e0d-266f30cba72e" class="st4" cx="34.6" cy="364.9" rx="34.6" ry="74.2"></ellipse>
	<path id="a800d1c2-f743-4d93-bec2-cff0f953733c" class="st3" d="M38.5,486.2c-13.8-87.3-0.1-174.2,0-175.1l1.4,0.2   c-0.1,0.9-13.8,87.6,0,174.6"></path>
	<polygon id="fb01bfd3-0095-4a66-b946-3896d80fc39c" class="st3" points="34.1,367.1 65.4,349.5 66.1,350.8 34.8,368.4  "></polygon>
	<polygon id="b67993a5-f0ea-4993-bd83-fcb2f25516f5" class="st3" points="1.1,359.6 1.7,358.3 33,375.9 32.4,377.2  "></polygon>
	<path id="a58bbeb0-9bd3-48cd-81c7-bf267a60ca0e" class="st3" d="M349.7,100.1l7.6-6.4c-5.9-0.7-8.3,2.7-9.3,5.4   c-4.6-2-9.6,0.6-9.6,0.6l15.2,5.8C352.8,103.4,351.5,101.5,349.7,100.1L349.7,100.1z"></path>
	<path id="f9b938cf-521f-4b64-a4af-443f90f250ff" class="st3" d="M212.2,67.9l7.6-6.1c-5.9-0.7-8.3,2.6-9.3,5.1   c-4.6-1.9-7,1.1-7,1.1l12.5,5C215.2,71,213.9,69.2,212.2,67.9z"></path>
	<path id="a8da215e-7841-4236-9b2d-2b5040889003" class="st3" d="M403.6,62.9l7.6-6.4c-5.9-0.7-8.3,2.7-9.3,5.4   c-4.6-2-9.6,0.6-9.6,0.6l15.2,5.8C406.7,66.1,405.4,64.2,403.6,62.9L403.6,62.9z"></path>
	<path id="f0e6e0e6-42da-4f68-a4c7-39fa16634762" class="st3" d="M212.5,485.6c-0.4-6.3-5.4-11.3-11.5-11.3l0,0c-2,0-4,0.6-5.7,1.6   c-5.1-4.8-12.9-4.4-17.4,0.9c-2.1,2.4-3.2,5.5-3.2,8.7"></path>
	<path id="a1a48b26-c08c-4af6-a63a-aec9264485a6" class="st3" d="M409.5,485.6c-0.4-6.3-5.4-11.3-11.5-11.3c-2,0-4,0.6-5.7,1.6   c-5.1-4.8-12.9-4.4-17.4,0.9c-2.1,2.4-3.2,5.5-3.2,8.7"></path>
	<ellipse id="fb6c0aeb-9c49-4f71-adc3-f096e0d8dfbf" class="st2" cx="583.7" cy="412.6" rx="21" ry="45"></ellipse>
	<path id="b1a6d698-dda0-490a-ac80-38ce87516ad9" class="st3" d="M581.3,486.2c8.4-53,0.1-105.7,0-106.2l-0.8,0.2   c0.1,0.5,8.4,53.1,0,105.9"></path>
	<polygon id="ec111ffd-238a-4858-990a-57023cafb3d8" class="st3" points="564.6,404.1 565,403.3 584,414 583.6,414.7  "></polygon>
	<polygon id="e635c501-1628-42d4-a3a5-c4826c51f25c" class="st3" points="584.6,419.3 603.6,408.6 604,409.4 585,420.1  "></polygon>
	<g id="e6d5674b-00e7-4467-bab6-ed987278fef8">
		<path id="e1ce62fd-b420-4db2-ab4c-e67ce8dd22d3" class="st1" d="M558.3,466.6c-0.4,0.2-0.8,0.2-1.2-0.1c-0.1-0.1-0.2,0.1-0.1,0.2    c0.4,0.3,0.9,0.3,1.3,0.1c0,0,0.1-0.1,0.1-0.1C558.4,466.6,558.4,466.6,558.3,466.6L558.3,466.6L558.3,466.6z"></path>
	</g>
	<path id="a893f891-f54b-45a9-863c-d8f504ba27e5_3_" class="st3" d="M487,467.4"></path>
	<path id="a893f891-f54b-45a9-863c-d8f504ba27e5_1_" class="st3" d="M454.3,467.4"></path>
</g>
<g id="Layer_2">
	<rect x="490.1" y="268.2" class="st1" width="24.9" height="1.4"></rect>
	<path class="st5" d="M502.4,486.5v-38.6C502.4,447.9,517.5,475.2,502.4,486.5z"></path>
	<path class="st5" d="M503.4,486.5l-28.4-26.1C474.9,460.4,505.3,467.8,503.4,486.5z"></path>
	<path class="st6" d="M328.6,312.1c0.2,0.2,0.4,0.5,0.6,0.7l27.2-0.7l3.2-5.8l9.4,3.7l-4.6,10.8c-0.8,1.8-2.6,2.9-4.6,2.6l-30.8-3.7   c-2,2.5-5.6,2.9-8.1,1s-2.9-5.6-1-8.1c2-2.5,5.6-2.9,8.1-1C328.2,311.8,328.4,311.9,328.6,312.1L328.6,312.1z"></path>
	<polygon class="st6" points="417.4,477.6 408.4,477.6 404.2,443 417.4,443  "></polygon>
	<path class="st7" d="M419.7,486.2l-28.9,0v-0.4c0-6.2,5-11.2,11.2-11.2h0l17.6,0L419.7,486.2z"></path>
	<polygon class="st6" points="336.1,477.4 327.8,473.8 337.5,440.4 349.6,445.6  "></polygon>
	<path class="st7" d="M334.7,486.2l-26.6-11.3l0.1-0.3c2.4-5.7,9-8.4,14.8-5.9l0,0l16.2,6.9L334.7,486.2z"></path>
	<polygon class="st6" points="373.9,319.6 373.2,330.1 392.1,332.1 411.9,334.2 406.1,318.3  "></polygon>
	<path class="st7" d="M372.6,330.2l-7.4-51.3l12.7-4.2l3.7-5.1l18.2,1.1l2.7,6l9.7,4.6l-1.5,27.7l1.1,23.2L372.6,330.2z"></path>
	<path class="st7" d="M368,316.5l-13-5.2l0.1-0.2c0.1-0.2,5.6-23.3,6.3-27c0.8-3.9,3.6-4.9,3.7-5l0.1,0l5.1,1.6l2.3,17.7L368,316.5z   "></path>
	<path class="st7" d="M342.7,471.3l-17.3-3.5l27.6-76.1l9.4-26c0,0,6-20.8,8.7-28.9l1.6-10.8l38.7,4.3c0,0,10.8,15.9,7.5,41.7   l1.5,97.1l-17.3,0.9l-14.5-98l-25.4,53.7c0,0-8,22.9-13.7,27.9L342.7,471.3z"></path>
	<path class="st6" d="M396,333.8c0.3,0,0.6,0,0.9,0.1l18-20.4l-2.1-6.3l9.1-4.4l4.8,10.8c0.8,1.8,0.3,3.9-1.2,5.1l-23.7,20   c0.5,3.1-1.7,6.1-4.8,6.6c-3.1,0.5-6.1-1.7-6.6-4.8c-0.5-3.1,1.7-6.1,4.8-6.6C395.5,333.9,395.7,333.8,396,333.8L396,333.8z"></path>
	<path class="st7" d="M413.5,315.5l-7.5-17.7l2.9-12.3l3.2-4c0.5-0.2,1-0.2,1.5,0c1.2,0.5,2.2,1.9,3,4.3l7,20.1L413.5,315.5z"></path>
	<path class="st7" d="M374.5,263.1v-13.3c0-9.9,8-17.9,17.9-17.9c9.9,0,17.9,8,17.9,17.9v13.3c0,1.3-1.1,2.4-2.4,2.4h-30.9   C375.5,265.5,374.5,264.4,374.5,263.1z"></path>
	<circle class="st6" cx="388.7" cy="252.1" r="13.1"></circle>
	<path class="st7" d="M370.2,250.8c0-7.8,6.3-14.1,14.1-14.1h2.7c7.8,0,14.1,6.3,14.1,14.1v0.3h-5.6l-1.9-5.4l-0.4,5.4h-2.9l-1-2.7   l-0.2,2.7h-18.9V250.8z"></path>
	<path class="st7" d="M387.4,267c-0.5-0.7-0.6-1.7-0.2-2.5c2.8-5.4,6.8-15.3,1.5-21.4l-0.4-0.4h15.3v22.9l-13.9,2.4   c-0.1,0-0.3,0-0.4,0C388.5,268,387.8,267.6,387.4,267z"></path>
	<polygon class="st8" points="209.4,470 217.5,472.9 232.5,443.1 220.6,438.8  "></polygon>
	<path class="st7" d="M204.5,477.1l3.7-10.5l15.9,5.7c5.6,2,8.5,8.2,6.5,13.8l-0.1,0.3L204.5,477.1z"></path>
	<polygon class="st8" points="262.1,478 270.7,478 274.7,444.9 262.1,444.9  "></polygon>
	<path class="st7" d="M259.9,475.2l16.9,0h0c6,0,10.8,4.8,10.8,10.8v0v0.4l-27.7,0L259.9,475.2z"></path>
	<path class="st5" d="M242.5,266.2l3.7-7.4c0,0,13.9,3.5,15.2,11.6L242.5,266.2z"></path>
	<polygon class="st7" points="227,350.6 237.2,407.4 210.2,455.1 226.3,461.4 253.7,415.2 257.2,402.5 259.3,468.4 273.8,468    280.5,406.5 269.8,349.2  "></polygon>
	<path class="st3" d="M246.3,364.1c-14.9,0-24.4-2.9-24.6-2.9l-0.3-0.1l7.8-36.1l0.4-33.3c0-14.1,9.3-24.5,10.6-25.5   c0.4-1.7,1.6-3.2,3.2-4c3.1-1.4,6.9,0.3,7,0.4l11.4,4.3l0.1,0.2c0.1,0.4,15.1,49.5,15.1,49.5s-0.9,42.9-1.2,44.3   C275.6,360.9,254.6,364.1,246.3,364.1z"></path>
	<circle class="st8" cx="257.8" cy="241.1" r="15.3"></circle>
	<polygon class="st9" points="240.7,294.5 267.6,331.9 271.5,314.4  "></polygon>
	<path class="st8" d="M324.9,319.9c-2.9,2.3-7,1.8-9.2-1.1c-0.2-0.3-0.5-0.6-0.6-1l-23.1,3.7l5-11.1l21.2-1.8c3.3-1.5,7.3,0,8.8,3.3   C328.1,314.8,327.3,318.1,324.9,319.9z"></path>
	<polygon class="st5" points="298.1,309.9 306.4,309.1 308.7,320.6 298.2,320.8  "></polygon>
	<path class="st3" d="M304.9,324.7l-40.7-3.6l-20.5-32.7l-0.1-0.3c-1.3-6.1,2.5-12.1,8.6-13.4c5-1.1,10.1,1.3,12.4,5.9l12.1,23.5   l24.3,3.7L304.9,324.7z"></path>
	<path class="st7" d="M244.7,254.4l12.7,0.5c0.8,0,2.9-8.4,3.2-10.1c0.5-2.3,2.6-4,4.9-3.8c1,0.1,3.4-1.7,5.8-3.8   c4.7-4,4.5-11.5-0.7-14.9c-0.1-0.1-0.3-0.2-0.4-0.3c-3.3-1.8-7.1-2.4-10.8-2.5c-3.4,0-6.9,0.4-9.9,2c-5.4,2.9-8.2,9.2-8.5,15.2   c-0.3,6.1,1.7,12,3.9,17.7"></path>
	<path class="st10" d="M536.6,486.8H140c-0.3,0-0.5-0.2-0.5-0.5c0-0.3,0.2-0.5,0.5-0.5h396.7c0.3,0,0.5,0.2,0.5,0.5   C537.3,486.6,536.9,486.8,536.6,486.8z"></path>
</g>
</svg>